<svg xmlns="http://www.w3.org/2000/svg" viewBox="0 0 205 13" width="615" height="39" shape-rendering="crispEdges" role="img" aria-label="MAX'S GIT PAGE"><defs><linearGradient id="fire" gradientUnits="userSpaceOnUse" x1="0" y1="3" x2="0" y2="10"><stop offset="0%" stop-color="#b02a14"/><stop offset="18%" stop-color="#d9451a"/><stop offset="38%" stop-color="#ef6a1e"/><stop offset="56%" stop-color="#fa9526"/><stop offset="74%" stop-color="#ffc233"/><stop offset="89%" stop-color="#ffe75a"/><stop offset="100%" stop-color="#fff9c0"/></linearGradient></defs><rect width="205" height="13" fill="none"/><g fill="#000000"><rect x="5" y="2" width="4" height="1"/><rect x="10" y="2" width="4" height="1"/><rect x="25" y="2" width="5" height="1"/><rect x="41" y="2" width="4" height="1"/><rect x="46" y="2" width="4" height="1"/><rect x="54" y="2" width="11" height="1"/><rect x="82" y="2" width="7" height="1"/><rect x="98" y="2" width="8" height="1"/><rect x="115" y="2" width="8" height="1"/><rect x="137" y="2" width="8" height="1"/><rect x="157" y="2" width="5" height="1"/><rect x="175" y="2" width="7" height="1"/><rect x="191" y="2" width="9" height="1"/><rect x="5" y="3" width="1" height="1"/><rect x="8" y="3" width="3" height="1"/><rect x="13" y="3" width="1" height="1"/><rect x="24" y="3" width="2" height="1"/><rect x="29" y="3" width="2" height="1"/><rect x="41" y="3" width="1" height="1"/><rect x="44" y="3" width="1" height="1"/><rect x="46" y="3" width="1" height="1"/><rect x="49" y="3" width="1" height="1"/><rect x="54" y="3" width="1" height="1"/><rect x="57" y="3" width="2" height="1"/><rect x="64" y="3" width="2" height="1"/><rect x="81" y="3" width="2" height="1"/><rect x="88" y="3" width="1" height="1"/><rect x="98" y="3" width="1" height="1"/><rect x="105" y="3" width="1" height="1"/><rect x="115" y="3" width="1" height="1"/><rect x="122" y="3" width="1" height="1"/><rect x="137" y="3" width="1" height="1"/><rect x="144" y="3" width="2" height="1"/><rect x="156" y="3" width="2" height="1"/><rect x="161" y="3" width="2" height="1"/><rect x="174" y="3" width="2" height="1"/><rect x="181" y="3" width="1" height="1"/><rect x="191" y="3" width="1" height="1"/><rect x="199" y="3" width="1" height="1"/><rect x="5" y="4" width="1" height="1"/><rect x="9" y="4" width="1" height="1"/><rect x="13" y="4" width="1" height="1"/><rect x="23" y="4" width="2" height="1"/><rect x="27" y="4" width="1" height="1"/><rect x="30" y="4" width="2" height="1"/><rect x="41" y="4" width="1" height="1"/><rect x="44" y="4" width="3" height="1"/><rect x="49" y="4" width="1" height="1"/><rect x="54" y="4" width="1" height="1"/><rect x="57" y="4" width="1" height="1"/><rect x="60" y="4" width="3" height="1"/><rect x="65" y="4" width="1" height="1"/><rect x="80" y="4" width="2" height="1"/><rect x="84" y="4" width="5" height="1"/><rect x="98" y="4" width="3" height="1"/><rect x="103" y="4" width="3" height="1"/><rect x="115" y="4" width="3" height="1"/><rect x="120" y="4" width="3" height="1"/><rect x="137" y="4" width="1" height="1"/><rect x="140" y="4" width="3" height="1"/><rect x="145" y="4" width="1" height="1"/><rect x="155" y="4" width="2" height="1"/><rect x="159" y="4" width="1" height="1"/><rect x="162" y="4" width="2" height="1"/><rect x="173" y="4" width="2" height="1"/><rect x="177" y="4" width="5" height="1"/><rect x="191" y="4" width="1" height="1"/><rect x="194" y="4" width="6" height="1"/><rect x="5" y="5" width="1" height="1"/><rect x="13" y="5" width="1" height="1"/><rect x="23" y="5" width="1" height="1"/><rect x="26" y="5" width="3" height="1"/><rect x="31" y="5" width="1" height="1"/><rect x="41" y="5" width="2" height="1"/><rect x="45" y="5" width="1" height="1"/><rect x="48" y="5" width="2" height="1"/><rect x="54" y="5" width="1" height="1"/><rect x="57" y="5" width="1" height="1"/><rect x="60" y="5" width="6" height="1"/><rect x="80" y="5" width="1" height="1"/><rect x="83" y="5" width="6" height="1"/><rect x="100" y="5" width="1" height="1"/><rect x="103" y="5" width="1" height="1"/><rect x="117" y="5" width="1" height="1"/><rect x="120" y="5" width="1" height="1"/><rect x="137" y="5" width="1" height="1"/><rect x="140" y="5" width="1" height="1"/><rect x="142" y="5" width="1" height="1"/><rect x="145" y="5" width="1" height="1"/><rect x="155" y="5" width="1" height="1"/><rect x="158" y="5" width="3" height="1"/><rect x="163" y="5" width="1" height="1"/><rect x="173" y="5" width="1" height="1"/><rect x="176" y="5" width="6" height="1"/><rect x="191" y="5" width="1" height="1"/><rect x="194" y="5" width="5" height="1"/><rect x="5" y="6" width="1" height="1"/><rect x="8" y="6" width="1" height="1"/><rect x="10" y="6" width="1" height="1"/><rect x="13" y="6" width="1" height="1"/><rect x="23" y="6" width="1" height="1"/><rect x="26" y="6" width="3" height="1"/><rect x="31" y="6" width="1" height="1"/><rect x="42" y="6" width="2" height="1"/><rect x="47" y="6" width="2" height="1"/><rect x="54" y="6" width="5" height="1"/><rect x="64" y="6" width="2" height="1"/><rect x="80" y="6" width="1" height="1"/><rect x="83" y="6" width="2" height="1"/><rect x="88" y="6" width="1" height="1"/><rect x="100" y="6" width="1" height="1"/><rect x="103" y="6" width="1" height="1"/><rect x="117" y="6" width="1" height="1"/><rect x="120" y="6" width="1" height="1"/><rect x="137" y="6" width="1" height="1"/><rect x="140" y="6" width="3" height="1"/><rect x="145" y="6" width="1" height="1"/><rect x="155" y="6" width="1" height="1"/><rect x="158" y="6" width="3" height="1"/><rect x="163" y="6" width="1" height="1"/><rect x="173" y="6" width="1" height="1"/><rect x="176" y="6" width="2" height="1"/><rect x="181" y="6" width="1" height="1"/><rect x="191" y="6" width="1" height="1"/><rect x="198" y="6" width="1" height="1"/><rect x="5" y="7" width="1" height="1"/><rect x="8" y="7" width="1" height="1"/><rect x="10" y="7" width="1" height="1"/><rect x="13" y="7" width="1" height="1"/><rect x="23" y="7" width="1" height="1"/><rect x="31" y="7" width="1" height="1"/><rect x="41" y="7" width="2" height="1"/><rect x="45" y="7" width="1" height="1"/><rect x="48" y="7" width="2" height="1"/><rect x="57" y="7" width="6" height="1"/><rect x="65" y="7" width="1" height="1"/><rect x="80" y="7" width="1" height="1"/><rect x="83" y="7" width="3" height="1"/><rect x="88" y="7" width="1" height="1"/><rect x="100" y="7" width="1" height="1"/><rect x="103" y="7" width="1" height="1"/><rect x="117" y="7" width="1" height="1"/><rect x="120" y="7" width="1" height="1"/><rect x="137" y="7" width="1" height="1"/><rect x="144" y="7" width="2" height="1"/><rect x="155" y="7" width="1" height="1"/><rect x="163" y="7" width="1" height="1"/><rect x="173" y="7" width="1" height="1"/><rect x="176" y="7" width="3" height="1"/><rect x="181" y="7" width="1" height="1"/><rect x="191" y="7" width="1" height="1"/><rect x="194" y="7" width="5" height="1"/><rect x="5" y="8" width="1" height="1"/><rect x="8" y="8" width="3" height="1"/><rect x="13" y="8" width="1" height="1"/><rect x="23" y="8" width="1" height="1"/><rect x="26" y="8" width="3" height="1"/><rect x="31" y="8" width="1" height="1"/><rect x="41" y="8" width="1" height="1"/><rect x="44" y="8" width="3" height="1"/><rect x="49" y="8" width="1" height="1"/><rect x="57" y="8" width="1" height="1"/><rect x="60" y="8" width="3" height="1"/><rect x="65" y="8" width="1" height="1"/><rect x="80" y="8" width="2" height="1"/><rect x="84" y="8" width="2" height="1"/><rect x="88" y="8" width="1" height="1"/><rect x="98" y="8" width="3" height="1"/><rect x="103" y="8" width="3" height="1"/><rect x="117" y="8" width="1" height="1"/><rect x="120" y="8" width="1" height="1"/><rect x="137" y="8" width="1" height="1"/><rect x="140" y="8" width="5" height="1"/><rect x="155" y="8" width="1" height="1"/><rect x="158" y="8" width="3" height="1"/><rect x="163" y="8" width="1" height="1"/><rect x="173" y="8" width="2" height="1"/><rect x="177" y="8" width="2" height="1"/><rect x="181" y="8" width="1" height="1"/><rect x="191" y="8" width="1" height="1"/><rect x="194" y="8" width="6" height="1"/><rect x="5" y="9" width="1" height="1"/><rect x="8" y="9" width="1" height="1"/><rect x="10" y="9" width="1" height="1"/><rect x="13" y="9" width="1" height="1"/><rect x="23" y="9" width="1" height="1"/><rect x="26" y="9" width="1" height="1"/><rect x="28" y="9" width="1" height="1"/><rect x="31" y="9" width="1" height="1"/><rect x="41" y="9" width="1" height="1"/><rect x="44" y="9" width="1" height="1"/><rect x="46" y="9" width="1" height="1"/><rect x="49" y="9" width="1" height="1"/><rect x="57" y="9" width="2" height="1"/><rect x="64" y="9" width="2" height="1"/><rect x="81" y="9" width="2" height="1"/><rect x="88" y="9" width="1" height="1"/><rect x="98" y="9" width="1" height="1"/><rect x="105" y="9" width="1" height="1"/><rect x="117" y="9" width="1" height="1"/><rect x="120" y="9" width="1" height="1"/><rect x="137" y="9" width="1" height="1"/><rect x="140" y="9" width="1" height="1"/><rect x="155" y="9" width="1" height="1"/><rect x="158" y="9" width="1" height="1"/><rect x="160" y="9" width="1" height="1"/><rect x="163" y="9" width="1" height="1"/><rect x="174" y="9" width="2" height="1"/><rect x="181" y="9" width="1" height="1"/><rect x="191" y="9" width="1" height="1"/><rect x="199" y="9" width="1" height="1"/><rect x="5" y="10" width="4" height="1"/><rect x="10" y="10" width="4" height="1"/><rect x="23" y="10" width="4" height="1"/><rect x="28" y="10" width="4" height="1"/><rect x="41" y="10" width="4" height="1"/><rect x="46" y="10" width="4" height="1"/><rect x="58" y="10" width="7" height="1"/><rect x="82" y="10" width="7" height="1"/><rect x="98" y="10" width="8" height="1"/><rect x="117" y="10" width="4" height="1"/><rect x="137" y="10" width="4" height="1"/><rect x="155" y="10" width="4" height="1"/><rect x="160" y="10" width="4" height="1"/><rect x="175" y="10" width="7" height="1"/><rect x="191" y="10" width="9" height="1"/></g><g fill="url(#fire)"><rect x="6" y="3" width="2" height="1"/><rect x="11" y="3" width="2" height="1"/><rect x="26" y="3" width="3" height="1"/><rect x="42" y="3" width="2" height="1"/><rect x="47" y="3" width="2" height="1"/><rect x="55" y="3" width="2" height="1"/><rect x="59" y="3" width="5" height="1"/><rect x="83" y="3" width="5" height="1"/><rect x="99" y="3" width="6" height="1"/><rect x="116" y="3" width="6" height="1"/><rect x="138" y="3" width="6" height="1"/><rect x="158" y="3" width="3" height="1"/><rect x="176" y="3" width="5" height="1"/><rect x="192" y="3" width="7" height="1"/><rect x="6" y="4" width="3" height="1"/><rect x="10" y="4" width="3" height="1"/><rect x="25" y="4" width="2" height="1"/><rect x="28" y="4" width="2" height="1"/><rect x="42" y="4" width="2" height="1"/><rect x="47" y="4" width="2" height="1"/><rect x="55" y="4" width="2" height="1"/><rect x="58" y="4" width="2" height="1"/><rect x="63" y="4" width="2" height="1"/><rect x="82" y="4" width="2" height="1"/><rect x="101" y="4" width="2" height="1"/><rect x="118" y="4" width="2" height="1"/><rect x="138" y="4" width="2" height="1"/><rect x="143" y="4" width="2" height="1"/><rect x="157" y="4" width="2" height="1"/><rect x="160" y="4" width="2" height="1"/><rect x="175" y="4" width="2" height="1"/><rect x="192" y="4" width="2" height="1"/><rect x="6" y="5" width="7" height="1"/><rect x="24" y="5" width="2" height="1"/><rect x="29" y="5" width="2" height="1"/><rect x="43" y="5" width="2" height="1"/><rect x="46" y="5" width="2" height="1"/><rect x="55" y="5" width="2" height="1"/><rect x="58" y="5" width="2" height="1"/><rect x="81" y="5" width="2" height="1"/><rect x="101" y="5" width="2" height="1"/><rect x="118" y="5" width="2" height="1"/><rect x="138" y="5" width="2" height="1"/><rect x="143" y="5" width="2" height="1"/><rect x="156" y="5" width="2" height="1"/><rect x="161" y="5" width="2" height="1"/><rect x="174" y="5" width="2" height="1"/><rect x="192" y="5" width="2" height="1"/><rect x="6" y="6" width="2" height="1"/><rect x="9" y="6" width="1" height="1"/><rect x="11" y="6" width="2" height="1"/><rect x="24" y="6" width="2" height="1"/><rect x="29" y="6" width="2" height="1"/><rect x="44" y="6" width="3" height="1"/><rect x="59" y="6" width="5" height="1"/><rect x="81" y="6" width="2" height="1"/><rect x="85" y="6" width="3" height="1"/><rect x="101" y="6" width="2" height="1"/><rect x="118" y="6" width="2" height="1"/><rect x="138" y="6" width="2" height="1"/><rect x="143" y="6" width="2" height="1"/><rect x="156" y="6" width="2" height="1"/><rect x="161" y="6" width="2" height="1"/><rect x="174" y="6" width="2" height="1"/><rect x="178" y="6" width="3" height="1"/><rect x="192" y="6" width="6" height="1"/><rect x="6" y="7" width="2" height="1"/><rect x="9" y="7" width="1" height="1"/><rect x="11" y="7" width="2" height="1"/><rect x="24" y="7" width="7" height="1"/><rect x="43" y="7" width="2" height="1"/><rect x="46" y="7" width="2" height="1"/><rect x="63" y="7" width="2" height="1"/><rect x="81" y="7" width="2" height="1"/><rect x="86" y="7" width="2" height="1"/><rect x="101" y="7" width="2" height="1"/><rect x="118" y="7" width="2" height="1"/><rect x="138" y="7" width="6" height="1"/><rect x="156" y="7" width="7" height="1"/><rect x="174" y="7" width="2" height="1"/><rect x="179" y="7" width="2" height="1"/><rect x="192" y="7" width="2" height="1"/><rect x="6" y="8" width="2" height="1"/><rect x="11" y="8" width="2" height="1"/><rect x="24" y="8" width="2" height="1"/><rect x="29" y="8" width="2" height="1"/><rect x="42" y="8" width="2" height="1"/><rect x="47" y="8" width="2" height="1"/><rect x="58" y="8" width="2" height="1"/><rect x="63" y="8" width="2" height="1"/><rect x="82" y="8" width="2" height="1"/><rect x="86" y="8" width="2" height="1"/><rect x="101" y="8" width="2" height="1"/><rect x="118" y="8" width="2" height="1"/><rect x="138" y="8" width="2" height="1"/><rect x="156" y="8" width="2" height="1"/><rect x="161" y="8" width="2" height="1"/><rect x="175" y="8" width="2" height="1"/><rect x="179" y="8" width="2" height="1"/><rect x="192" y="8" width="2" height="1"/><rect x="6" y="9" width="2" height="1"/><rect x="11" y="9" width="2" height="1"/><rect x="24" y="9" width="2" height="1"/><rect x="29" y="9" width="2" height="1"/><rect x="42" y="9" width="2" height="1"/><rect x="47" y="9" width="2" height="1"/><rect x="59" y="9" width="5" height="1"/><rect x="83" y="9" width="5" height="1"/><rect x="99" y="9" width="6" height="1"/><rect x="118" y="9" width="2" height="1"/><rect x="138" y="9" width="2" height="1"/><rect x="156" y="9" width="2" height="1"/><rect x="161" y="9" width="2" height="1"/><rect x="176" y="9" width="5" height="1"/><rect x="192" y="9" width="7" height="1"/></g></svg>